mada-skeleton.sfdir
StartChar: space
Encoding: 32 32 27
Width: 1000
VWidth: 0
Flags: W
LayerCount: 2
Back
SplineSet
21441.0507812 621.15625 m 0
 21345.5634766 588.452148438 21164.8535156 518.624023438 21080.796875 431.55078125 c 1
 21397.4863281 105.393554688 l 2
 21419.3095703 83.5703125 21401.1894531 52.3388671875 21367.3798828 52.3388671875 c 2
 21061.6621094 52.3388671875 l 2
 21032.546875 52.53515625 21012.7314453 78.1640625 21012.9560547 106.263671875 c 2
 21014.6962891 670.732421875 l 1
13699.2929688 98.5361328125 m 1
 13699.2929688 -52.6123046875 l 2
 13699.2929688 -110.30859375 13741.3632812 -147.155273438 13798.5185547 -147.155273438 c 2
 14290.2802734 -147.079101562 l 2
 14323.7880859 -146.733398438 14345.1064453 -120.192382812 14344.9707031 -93.080078125 c 2
 14345.1894531 191.303710938 l 2
 14345.1894531 318.920898438 14202.4892578 344.174804688 14130.8105469 297.708984375 c 0
 14081.375 265.663085938 14046.9384766 182.939453125 14086.9707031 117.01953125 c 0
 14134.3095703 39.0703125 14203.8974609 53.3173828125 14305.2089844 52.9638671875 c 2
 14567.2802734 52.0478515625 l 1
22256.4023438 300.048828125 m 1
 22256.4023438 105.099609375 l 2
 22256.4023438 79.1865234375 22229.3222656 52.9375 22204.2402344 52.9375 c 2
 21812.7597656 52.9375 l 2
 21749.4492188 52.9375 21694.7363281 99.615234375 21694.7363281 159.896484375 c 2
 21694.7363281 300.048828125 l 1
6689.44042969 481.560546875 m 0
 6894.19140625 452.495117188 7061.00976562 291.227539062 7061.00976562 104.837890625 c 0
 7061.00976562 74.59765625 7038.35449219 53.18359375 7009.30273438 53.18359375 c 2
 6435.54492188 53.18359375 l 1
6586.69042969 185.857421875 m 0
 6586.69042969 118.205078125 6641.63378906 63.26171875 6709.28613281 63.26171875 c 0
 6776.93945312 63.26171875 6831.8828125 118.205078125 6831.8828125 185.857421875 c 0
 6831.8828125 253.509765625 6776.93945312 308.453125 6709.28613281 308.453125 c 0
 6641.63378906 308.453125 6586.69042969 253.509765625 6586.69042969 185.857421875 c 0
5909.17285156 397.036132812 m 0
 6156.3828125 397.036132812 6254.23242188 275.333984375 6252.48144531 104.697265625 c 0
 6252.48144531 74.4560546875 6229.82714844 53.04296875 6200.77441406 53.04296875 c 2
 5650.56738281 53.04296875 l 1
5801.71289062 185.716796875 m 0
 5801.71289062 118.063476562 5856.65625 63.1201171875 5924.30957031 63.1201171875 c 0
 5991.96191406 63.1201171875 6046.90527344 118.063476562 6046.90527344 185.716796875 c 0
 6046.90527344 253.369140625 5991.96191406 308.3125 5924.30957031 308.3125 c 0
 5856.65625 308.3125 5801.71289062 253.369140625 5801.71289062 185.716796875 c 0
5122.17578125 387.03125 m 0
 5380.74707031 383.044921875 5492.96386719 257.286132812 5489.1640625 105.389648438 c 0
 5489.1640625 75.1494140625 5466.50976562 52.7578125 5437.45703125 52.7578125 c 2
 4872.99023438 52.7578125 l 1
5044.74609375 103.087890625 m 1
 5044.74609375 199.745117188 l 1
 5055.86914062 307.911132812 5185.65625 329.243164062 5263.22265625 209.809570312 c 0
 5325.70410156 113.6015625 5261.14550781 53.6533203125 5195.49023438 53.12109375 c 0
7501.71777344 448.146484375 m 0
 7760.2890625 444.16015625 7872.50585938 257.171875 7868.70605469 105.274414062 c 0
 7868.70605469 75.0341796875 7846.05175781 52.6435546875 7816.99902344 52.6435546875 c 2
 7252.53222656 52.6435546875 l 1
7424.28808594 102.973632812 m 1
 7424.28808594 199.629882812 l 1
 7435.41113281 307.795898438 7565.19824219 329.127929688 7642.76464844 209.694335938 c 0
 7705.24609375 113.487304688 7640.6875 53.5380859375 7575.03320312 53.005859375 c 0
20620.2558594 375.772460938 m 1
 20620.2763672 103.701171875 l 2
 20620.2763672 74.458984375 20597.9121094 51.9443359375 20567.1347656 51.9443359375 c 2
 20484.8730469 51.9443359375 l 1
20436.9775391 375.62890625 m 1
 20436.9775391 103.565429688 l 2
 20436.9775391 74.3232421875 20414.6142578 51.80859375 20383.8603516 51.80859375 c 2
 20301.5966797 51.80859375 l 1
20253.8818359 377.69140625 m 1
 20253.8818359 -96.8984375 l 2
 20253.8818359 -126.155273438 20231.5175781 -148.84375 20200.7558594 -148.655273438 c 2
 19933.71875 -148.16015625 l 2
 19906.3681641 -148.4375 19884.9951172 -120.717773438 19884.9951172 -92.083984375 c 2
 19885.2480469 186.248046875 l 1
19104.8095703 69.18359375 m 0
 19208.9619141 212.759765625 19309.0507812 362.129882812 19424.9726562 319.229492188 c 1
 19474.6298828 298.633789062 19499.5751953 253.17578125 19501.1777344 171.176757812 c 1
 19503.9921875 103.987304688 l 2
 19505.2109375 74.767578125 19481.6357422 52.23046875 19450.859375 52.23046875 c 2
 18909.3574219 52.23046875 l 1
19048.2304688 277.060546875 m 1
 19047.9287109 97.666015625 l 1
18177.1894531 69.1083984375 m 0
 18281.3486328 212.692382812 18381.4306641 362.061523438 18497.3603516 319.162109375 c 1
 18547.0087891 298.56640625 18571.9619141 253.108398438 18573.5654297 171.109375 c 1
 18576.3789062 103.918945312 l 2
 18577.5976562 74.7001953125 18554.0146484 52.1630859375 18523.2382812 52.1630859375 c 2
 18121.3759766 52.1630859375 l 1
18121.3535156 276.90234375 m 1
 18121.3535156 -86.58203125 l 2
 18121.3535156 -115.838867188 18098.9824219 -138.526367188 18068.2275391 -138.338867188 c 2
 17801.1826172 -136.735351562 l 2
 17772.7216797 -136.735351562 17752.4589844 -110.041992188 17752.4589844 -80.65234375 c 2
 17751.5966797 197.6875 l 1
16161.7792969 52.7294921875 m 1
 16623.9833984 52.955078125 l 2
 16684.5361328 53.068359375 16677.6660156 119.475585938 16658.7861328 135.481445312 c 1
 16379.1064453 420.653320312 l 1
 16344.4990234 451.453125 16350.0654297 496.930664062 16376.3603516 511.44140625 c 1
 16475.0341797 572.36328125 16682.8076172 619.051757812 16720.2265625 619.650390625 c 0
17338.5195312 -238.53515625 m 1
 17098.1591797 -238.422851562 l 2
 17049.2167969 -239.265625 17013.4511719 -203.99609375 17013.4882812 -158.372070312 c 2
 17013.3447266 -43.044921875 l 2
 17013.2949219 2.7509765625 17053.8505859 52.57421875 17105.1943359 52.521484375 c 2
 17350.9960938 52.521484375 l 2
 17357.3623047 52.3486328125 17373.5332031 63.0185546875 17374.8203125 69.173828125 c 0
 17376.3554688 77.625 17378.6269531 69.03125 17377.8818359 83.0498046875 c 1
 17336.4277344 83.2080078125 17301.1357422 115.211914062 17270.9003906 148.44140625 c 0
 17232.0273438 191.198242188 17187.546875 267.147460938 17076.6738281 309.603515625 c 0
15511.5419922 52.5791015625 m 1
 15993.8447266 52.5791015625 l 2
 16000.21875 52.40625 16016.3818359 63.076171875 16017.6689453 69.216796875 c 0
 16019.2119141 77.6669921875 16021.4921875 77.404296875 16020.7392578 91.4306640625 c 1
 15979.2773438 91.595703125 15942.8105469 119.318359375 15910.2363281 148.4921875 c 0
 15867.7353516 186.545898438 15821.1025391 239.987304688 15768.9931641 276.686523438 c 0
 15713.8349609 315.522460938 15659.2490234 328.6015625 15617.9140625 339.000976562 c 0
15245.1054688 -220.208007812 m 1
 14956.6298828 -220.087890625 l 2
 14932.9853516 -220.379882812 14914.4863281 -200.16796875 14914.3369141 -173.01171875 c 2
 14914.1982422 4.0048828125 l 1
 14915.3916016 30.39453125 14928.3193359 52.412109375 14958.9394531 52.47265625 c 2
 15245.1396484 52.787109375 l 1
15205.9052734 254.87109375 m 0
 15189.1621094 262.072265625 15173.0419922 267.813476562 15157.7011719 272.177734375 c 0
 15001.6591797 316.409179688 14925.375 216.967773438 15076.6435547 53.337890625 c 0
15010.0283203 422.493164062 m 1
 15010.0283203 422.493164062 l 1
15936.7988281 417.82421875 m 1
 15936.7988281 417.82421875 l 1
15839.9082031 -139.877929688 m 1
 15839.9082031 -139.877929688 l 1
17199.6328125 -94.9296875 m 1
 17199.6328125 -94.9296875 l 1
17280.1416016 331.440429688 m 1
 17280.1416016 331.440429688 l 1
18212.5410156 386.97265625 m 1
 18212.5410156 386.97265625 18212.5507812 386.97265625 18212.5410156 386.97265625 c 1
19140.4853516 389.147460938 m 1
 19140.4853516 389.147460938 l 1
20537.4589844 482.321289062 m 1
 20537.4589844 482.321289062 l 1
20345.1738281 482.7578125 m 1
 20345.1738281 482.7578125 l 1
20440.1992188 576.91015625 m 1
 20440.1992188 576.91015625 l 1
10874.6806641 604.7734375 m 1
 11142.9443359 603.546875 l 2
 11172.140625 603.418945312 11194.640625 581.174804688 11194.640625 550.420898438 c 2
 11194.640625 -0.501953125 l 1
13087.6884766 604.810546875 m 1
 12913.6357422 603.577148438 l 2
 12884.3642578 603.374023438 12861.8642578 581.212890625 12861.8642578 550.451171875 c 2
 12861.8642578 -0.46484375 l 1
13180.4697266 659.485351562 m 1
 13180.4697266 0.2412109375 l 1
12708.4306641 659.637695312 m 1
 12708.4306641 477.060546875 l 2
 12708.4306641 447.818359375 12686.0820312 425.311523438 12655.3046875 425.303710938 c 2
 12573.0576172 425.303710938 l 1
12525.1992188 659.501953125 m 1
 12525.1992188 476.91796875 l 2
 12525.1992188 447.67578125 12502.8496094 425.17578125 12472.0732422 425.17578125 c 2
 12389.75 425.162109375 l 1
12340.9892578 659.833984375 m 1
 12340.9892578 0.212890625 l 1
23613.734375 615.428710938 m 1
 23438.9824219 487.391601562 l 2
 23400.1162109 459.489257812 23411.8925781 435.943359375 23440.6230469 404.978515625 c 1
 23573.3017578 283.924804688 l 1
 23429.7265625 123.82421875 l 2
 23405.1279297 97.3515625 23393.7197266 70.7138671875 23421.1777344 53.0908203125 c 1
 23734.2978516 52.8720703125 l 1
12100.6416016 607.766601562 m 1
 11944.0488281 492.010742188 l 1
 11917.1992188 468.737304688 11892.6523438 456.63671875 11936.2978516 423.721679688 c 1
 12064.2216797 335.650390625 l 1
 11930.0517578 142.567382812 l 2
 11909.7353516 114.236328125 11872.6230469 52.73828125 11927.5097656 52.9990234375 c 2
 12211.1083984 52.396484375 l 1
9767.98144531 0.2734375 m 1
 9768.20703125 483.705078125 l 1
 9748.76269531 616.391601562 9617.14453125 627.227539062 9553.6484375 583.651367188 c 1
 9499.34179688 554.57421875 9462.59765625 469.663085938 9509.97460938 392.984375 c 1
 9564.17675781 314.973632812 9629.3125 341.76953125 9728.22753906 334.7109375 c 0
10766.7734375 637.767578125 m 1
 10614.3925781 57.0615234375 l 1
 10607.2441406 39.4755859375 10574.7373047 38.572265625 10564.7285156 56.8349609375 c 1
 10378.1855469 637.767578125 l 1
9942.06347656 6.8583984375 m 1
 10094.4960938 587.557617188 l 1
 10101.6435547 605.151367188 10134.1523438 606.046875 10144.1601562 587.783203125 c 1
 10330.6279297 6.8583984375 l 1
11617.2412109 567.333984375 m 0
 11742.6806641 490.165039062 11851.0410156 41.8525390625 11561.40625 40.046875 c 0
 11271.8457031 38.248046875 11377.5722656 483.897460938 11499.25 564.353515625 c 0
 11537.1757812 589.44921875 11579.6914062 590.419921875 11617.2412109 567.333984375 c 0
24794.7685547 -144.895507812 m 1
 24169.0175781 -144.77734375 l 1
 23953.3076172 -137.637695312 23965.7021484 50.75 24091.8583984 83.421875 c 0
 24202.2099609 112.0078125 24190.0195312 158.403320312 24214.0546875 192.68359375 c 0
 24286.8808594 296.565429688 24398.4912109 253.665039062 24452.1894531 220.004882812 c 0
25691.6708984 242.287109375 m 1
 25418.0957031 -34.0205078125 l 1
26391.2949219 180.337890625 m 1
 26002.4667969 179.065429688 l 1
26391.2949219 29.62109375 m 1
 26002.4667969 28.3486328125 l 1
26682.5498047 223.33984375 m 0
 26739.7246094 225.770507812 26787.2587891 175.473632812 26787.4179688 122.159179688 c 0
 26787.4179688 68.845703125 26741.5078125 25.7197265625 26686.2519531 25.44140625 c 0
 26630.9892578 25.44140625 26588.0898438 67.1376953125 26583.5898438 120.676757812 c 0
 26579.0820312 174.202148438 26625.3525391 220.961914062 26682.5498047 223.33984375 c 0
27764.4287109 232.669921875 m 0
 27821.6103516 235.092773438 27869.1376953 184.803710938 27869.2958984 131.489257812 c 0
 27869.2958984 78.1826171875 27823.3789062 35.0498046875 27768.1308594 34.771484375 c 0
 27712.8759766 34.771484375 27669.9677734 76.4677734375 27665.46875 130.006835938 c 0
 27660.9609375 183.532226562 27707.2314453 230.291992188 27764.4287109 232.669921875 c 0
27444.4921875 32.228515625 m 1
 27760.0341797 35.3212890625 l 1
27072.6396484 206.337890625 m 0
 27109.9326172 249.756835938 27179.1328125 250.140625 27218.1708984 213.84765625 c 0
 27257.1132812 177.442382812 27257.2558594 114.443359375 27219.7216797 73.8916015625 c 0
 27181.984375 33.53515625 27122.2216797 30.66796875 27080.0429688 63.943359375 c 0
 27037.8808594 97.2109375 27035.3085938 162.94140625 27072.6396484 206.337890625 c 0
27000.5507812 -164.25 m 1
 27213.7998047 68.353515625 l 1
23109.6943359 -222.78125 m 1
 22672.3369141 -222.666992188 l 1
 22456.6279297 -215.524414062 22469.0214844 -27.1357421875 22595.1767578 5.5361328125 c 0
 22705.5380859 34.109375 22696.0341797 78.783203125 22717.3818359 114.796875 c 0
 22770.6582031 204.672851562 22879.7470703 198.776367188 22920.34375 121.260742188 c 0
 22946.3583984 71.57421875 22981.3085938 53.2080078125 23035.6621094 53.212890625 c 2
 23109.6767578 53.21875 l 1
-5519.65527344 680.475585938 m 1
 -5388.70117188 230.705078125 l 1
-5314.7265625 659.807617188 m 1
 -5314.7265625 106.623046875 l 2
 -5314.7265625 74.345703125 -5336.83886719 52.791015625 -5365.24707031 52.791015625 c 2
 -5600.53027344 52.791015625 l 1
-5351.11523438 263.143554688 m 1
 -5451.71777344 262.408203125 l 1
 -5452.89550781 262.408203125 l 1
 -5452.82226562 261.23046875 l 1
 -5451.44140625 210.372070312 -5464.84570312 175.916992188 -5486.6015625 150.028320312 c 0
 -5508.35839844 124.138671875 -5538.57910156 106.78515625 -5571.08691406 90.564453125 c 1
 -5570.57226562 88.3564453125 l 1
 -5490.64941406 89.9755859375 l 1
 -5490.35546875 90.048828125 l 1
 -5490.06054688 90.1220703125 l 1
 -5399.43066406 140.771484375 -5360.58691406 198.916015625 -5349.93847656 261.744140625 c 2
 -5349.71679688 263.142578125 l 1
 -5351.11523438 263.142578125 l 1
 -5351.11523438 263.143554688 l 1
4833.96289062 52.8046875 m 1
 4695.46386719 52.9072265625 l 2
 4650.95214844 53.083984375 4626.51855469 16.6259765625 4658.62597656 -24.9404296875 c 1
 4769.23730469 -158.556640625 l 1
 4788.44628906 -177.765625 4776.82324219 -221.112304688 4726.64355469 -221.112304688 c 2
 4496.58398438 -221.112304688 l 2
 4432.5234375 -221.112304688 4355.25585938 -187.080078125 4355.25585938 -95.6669921875 c 2
 4355.25585938 100.263671875 l 1
3752.11816406 52.6884765625 m 1
 4219.84375 52.6884765625 l 1
4170.37011719 307.239257812 m 0
 3887.13867188 392.618164062 3795.26171875 255.54296875 3993.36621094 63.7333984375 c 0
2356.95898438 52.8154296875 m 1
 2451.65234375 52.8154296875 l 1
 2493.140625 60.54296875 2508.37207031 80.9521484375 2509.27929688 107.125 c 2
 2509.27929688 238.025390625 l 2
 2508.62011719 341.580078125 2636.28417969 371.125976562 2702.84472656 300.690429688 c 0
 2850.37109375 144.573242188 2747.89746094 52.6962890625 2621.38378906 52.6962890625 c 2
 2556.09472656 52.9072265625 l 1
3676.94238281 52.8037109375 m 1
 3565.25292969 52.8271484375 l 2
 3539.6484375 52.8271484375 3518.4296875 72.662109375 3518.4296875 98.220703125 c 1
 3514.46289062 180.728515625 l 2
 3511.45507812 243.31640625 3451.27734375 277.256835938 3383.74121094 239.418945312 c 0
 3344.11035156 217.213867188 3305.28808594 190.9609375 3269.82421875 157.325195312 c 1
 3251.30273438 141.27734375 3249.53222656 104.421875 3270.24121094 85.5302734375 c 1
 3385.09667969 -44.2265625 l 1
 3411.82519531 -70.955078125 3381.39746094 -110.4765625 3345.37695312 -110.288085938 c 2
 3079.73925781 -110.288085938 l 1
 3010.984375 -111.49609375 2964.32421875 -54.177734375 2964.32421875 13.755859375 c 2
 2964.32421875 217.1171875 l 1
2295.90039062 53.0771484375 m 1
 2042.51660156 53.0771484375 l 1
2139.59863281 57.931640625 m 1
 2139.59863281 -84.7783203125 l 2
 2139.59863281 -105.793945312 2123.81542969 -135.1171875 2092.99902344 -135.1171875 c 2
 1956.11425781 -135.1171875 l 2
 1874.08398438 -135.1171875 1777.484375 -79.5771484375 1777.484375 3.5654296875 c 2
 1777.484375 186.079101562 l 1
-4827.31542969 659.77734375 m 1
 -4827.31542969 106.592773438 l 2
 -4827.31542969 74.3154296875 -4849.42773438 52.7607421875 -4877.8359375 52.7607421875 c 2
 -5158.05175781 52.7607421875 l 1
-5009.48925781 564.359375 m 1
 -5009.48925781 59.4873046875 l 1
-5722.77050781 658.766601562 m 1
 -5722.77050781 109.366210938 l 2
 -5722.77050781 77.0888671875 -5744.8828125 52.7607421875 -5773.29101562 52.7607421875 c 2
 -5963.17871094 52.7607421875 l 1
-5904.94433594 658.47265625 m 1
 -5904.94433594 157.299804688 l 1
-4485.19921875 69.6875 m 0
 -4381.046875 213.263671875 -4280.95703125 362.633789062 -4165.03613281 319.734375 c 1
 -4115.37890625 299.137695312 -4090.43359375 253.6796875 -4088.83007812 171.680664062 c 1
 -4086.01660156 104.491210938 l 2
 -4084.796875 75.271484375 -4108.37304688 52.734375 -4139.14941406 52.734375 c 2
 -4604.56933594 52.734375 l 1
-4471.96386719 660.705078125 m 1
 -4471.96386719 87.8330078125 l 1
-1871.85253906 376.676757812 m 1
 -1871.828125 104.60546875 l 2
 -1871.828125 75.36328125 -1894.19238281 52.8642578125 -1924.96972656 52.8486328125 c 2
 -2007.23242188 52.8486328125 l 1
-2055.12988281 376.534179688 m 1
 -2055.12988281 104.469726562 l 2
 -2055.12988281 75.228515625 -2077.49414062 52.720703125 -2108.24804688 52.720703125 c 2
 -2190.52539062 52.720703125 l 1
-2237.57714844 376.752929688 m 1
 -2237.55371094 104.680664062 l 2
 -2237.55371094 75.439453125 -2259.91796875 52.939453125 -2290.69433594 52.9248046875 c 2
 -2469.22753906 52.9248046875 l 1
-1361.60058594 376.509765625 m 1
 -1361.57617188 104.438476562 l 2
 -1361.57617188 75.1962890625 -1383.94042969 52.6962890625 -1414.71777344 52.681640625 c 2
 -1702.9609375 52.681640625 l 1
-3530.17773438 52.431640625 m 1
 -3818.45996094 52.431640625 l 1
 -3879.36914062 53.4951171875 -3925.62597656 103.455078125 -3922.54199219 155.423828125 c 1
 -3906.90136719 335.272460938 -3659.40722656 387.680664062 -3658.83886719 233.346679688 c 2
 -3658.83886719 -0.734375 l 2
 -3658.83886719 -74.7265625 -3714.1328125 -147.471679688 -3797.0703125 -147.471679688 c 2
 -3989.53125 -147.471679688 l 1
-3217.46386719 187.49609375 m 1
 -3217.46386719 -1.0576171875 l 2
 -3217.46386719 -83.1875 -3276.09863281 -147.631835938 -3356.92285156 -147.631835938 c 2
 -3458.671875 -147.631835938 l 1
-3063.06347656 52.84765625 m 1
 -3188.29199219 52.84765625 l 1
-2895.00976562 659.30859375 m 1
 -2895.00976562 107.331054688 l 2
 -2895.00976562 80.4150390625 -2914.53125 52.8427734375 -2948.69433594 52.8427734375 c 2
 -3035.65820312 52.8427734375 l 1
-2665.39550781 659.751953125 m 1
 -2665.13378906 108.983398438 l 2
 -2665.13378906 105.452148438 -2660.19238281 52.8193359375 -2718.20507812 52.8193359375 c 0
-74.005859375 52.72265625 m 1
 -195.03125 52.72265625 l 1
-227.869140625 187.759765625 m 1
 -227.869140625 -83.4443359375 l 2
 -227.543945312 -109.30078125 -250.43359375 -135.450195312 -279.162109375 -135.450195312 c 2
 -417.755859375 -135.450195312 l 2
 -498.321289062 -135.450195312 -591.747070312 -72.88671875 -591.747070312 -3.064453125 c 2
 -591.747070312 187.169921875 l 1
-1037.25488281 329.643554688 m 0
 -965.600585938 293.192382812 -857.368164062 233.116210938 -851.415039062 103.891601562 c 0
 -850.942382812 80.5166015625 -866.083007812 52.4052734375 -903.881835938 52.4052734375 c 2
 -1167.68652344 52.4052734375 l 1
903.481445312 659.198242188 m 1
 903.481445312 107.220703125 l 2
 903.481445312 80.3056640625 883.959960938 52.732421875 849.796875 52.732421875 c 2
 527.333007812 52.732421875 l 1
764.859375 429.748046875 m 1
 665.072265625 429.748046875 l 2
 644.784179688 429.694335938 650.254882812 421.075195312 654.260742188 412.265625 c 2
 690.143554688 336.1796875 l 2
 694.036132812 326.737304688 700.22265625 318.295898438 682.922851562 318.723632812 c 2
 572.2734375 318.723632812 l 1
1518.60058594 695.625976562 m 1
 1518.60058594 -41.7490234375 l 2
 1518.60058594 -68.6650390625 1499.08007812 -96.23828125 1464.91699219 -96.23828125 c 2
 1205.44628906 -96.7236328125 l 2
 1172.87988281 -96.7236328125 1151.41796875 -76.541015625 1151.41796875 -44.404296875 c 2
 1151.27636719 144.840820312 l 1
-6128.15136719 363.875976562 m 1
 -6128.15136719 105.115234375 l 2
 -6128.15136719 77.28515625 -6151.52734375 52.8740234375 -6179.95507812 52.8740234375 c 2
 -6320.27441406 52.8740234375 l 2
 -6392.2734375 52.8740234375 -6434.47851562 128.799804688 -6382.82910156 185.91015625 c 1
 -6314.109375 250.702148438 -6257.60449219 286.524414062 -6212.39453125 394.806640625 c 0
8778.02734375 768.884765625 m 0
 8570.10253906 424.404296875 8563.50488281 77.68359375 8780.19824219 -289.326171875 c 0
9122.44726562 716.360351562 m 1
 8981.43554688 716.360351562 l 1
 8981.43554688 -236.360351562 l 1
 9123.48046875 -236.360351562 l 1
8489.70605469 717.432617188 m 0
 8413.28125 719.651367188 8348.77832031 680.721679688 8348.77832031 609.995117188 c 2
 8348.77832031 357.614257812 l 2
 8348.77832031 285.270507812 8296.72070312 239.942382812 8208.65722656 239.942382812 c 1
 8295.42773438 239.942382812 8349.34863281 198.786132812 8349.34863281 122.780273438 c 2
 8349.34863281 -114.586914062 l 2
 8349.34863281 -202.681640625 8413.77734375 -237.52734375 8489.70605469 -237.52734375 c 0
-6792.93652344 -239.197265625 m 1
 -6792.93652344 0.6083984375 l 2
 -6792.93652344 28.439453125 -6769.56054688 52.849609375 -6741.1328125 52.849609375 c 2
 -6600.81347656 52.849609375 l 1
-6885.62792969 -262.181640625 m 0
 -6906.0703125 -157.809570312 -6945.31347656 -150.041992188 -6981.80664062 -91.607421875 c 0
 -7016.00488281 -36.8505859375 -6998.66601562 51.2470703125 -7048.65625 52.849609375 c 1
 -7188.97558594 52.849609375 l 1
EndSplineSet
EndChar
StartChar: parenleft
Encoding: 40 40 52
Width: 1000
VWidth: 0
Flags: W
LayerCount: 2
Back
SplineSet
577.990234375 768.884765625 m 0
 370.065429688 424.404296875 363.467773438 77.68359375 580.161132812 -289.326171875 c 0
EndSplineSet
Fore
SplineSet
578 769 m 0
 370 425 363 78 580 -289 c 0
EndSplineSet
EndChar
StartChar: bracketleft
Encoding: 91 91 53
Width: 1000
VWidth: 0
Flags: W
LayerCount: 2
Back
SplineSet
569.989257812 716.360351562 m 5
 428.977539062 716.360351562 l 5
 428.977539062 -236.360351562 l 5
 571.022460938 -236.360351562 l 5
EndSplineSet
Fore
SplineSet
570 716 m 1
 429 716 l 1
 429 -236 l 1
 571 -236 l 1
EndSplineSet
EndChar
StartChar: braceleft
Encoding: 123 123 51
Width: 1000
VWidth: 0
Flags: W
LayerCount: 2
Back
SplineSet
640.524414062 717.432617188 m 17
 564.099609375 719.651367188 499.596679688 680.721679688 499.596679688 609.995117188 c 2
 499.596679688 357.614257812 l 2
 499.596679688 285.270507812 447.5390625 239.942382812 359.475585938 239.942382812 c 1
 446.24609375 239.942382812 500.166992188 198.786132812 500.166992188 122.780273438 c 2
 500.166992188 -114.586914062 l 2
 500.166992188 -202.681640625 564.595703125 -237.52734375 640.524414062 -237.52734375 c 9
EndSplineSet
Fore
SplineSet
641 717 m 17
 565 719 500 681 500 610 c 2
 500 358 l 2
 500 286 447 240 359 240 c 1
 446 240 500 199 500 123 c 2
 500 -115 l 2
 500 -203 565 -238 641 -238 c 9
EndSplineSet
EndChar
StartChar: uni0627
Encoding: 1575 1575 0
Width: 1000
VWidth: 0
LayerCount: 2
Back
SplineSet
526.221679688 659.751953125 m 1
 526.483398438 108.983398438 l 2
 526.483398438 105.452148438 531.424804688 52.8193359375 473.412109375 52.8193359375 c 2
EndSplineSet
Fore
SplineSet
526 660 m 1
 526 109 l 2
 526 105 531 53 473 53 c 2
EndSplineSet
EndChar
StartChar: uni062D
Encoding: 1581 1581 1
Width: 1000
VWidth: 0
Flags: W
LayerCount: 2
Back
SplineSet
503.6328125 -94.9296875 m 1
 503.6328125 -94.9296875 l 1
584.141601562 331.440429688 m 1
 584.141601562 331.440429688 l 1
642.833007812 -238.53515625 m 1
 402.47265625 -238.422851562 l 2
 353.530273438 -239.265625 317.764648438 -203.99609375 317.801757812 -158.372070312 c 2
 317.658203125 -43.044921875 l 2
 317.608398438 2.7509765625 358.1640625 52.57421875 409.5078125 52.521484375 c 2
 655.309570312 52.521484375 l 2
 673.782800008 52.0199102599 682.67600563 74.0060958051 682.1953125 83.0498046875 c 1
 640.741210938 83.2080078125 605.44921875 115.211914062 575.213867188 148.44140625 c 0
 536.340820312 191.198242188 491.860351562 267.147460938 380.987304688 309.603515625 c 9
EndSplineSet
Fore
SplineSet
643 -239 m 1
 402 -238 l 2
 353 -239 318 -204 318 -158 c 2
 318 -43 l 2
 318 3 359 53 410 53 c 2
 655 53 l 2
 673 52 682 74 682 83 c 1
 641 83 605 115 575 148 c 0
 536 191 492 268 381 310 c 9
EndSplineSet
EndChar
StartChar: uni062F
Encoding: 1583 1583 2
Width: 1000
VWidth: 0
Flags: W
LayerCount: 2
Back
SplineSet
472.291015625 329.643554688 m 17
 543.9453125 293.192382812 652.177734375 233.116210938 658.130859375 103.891601562 c 4
 658.603515625 80.5166015625 643.462890625 52.4052734375 605.6640625 52.4052734375 c 2
 341.859375 52.4052734375 l 1
EndSplineSet
Fore
SplineSet
472 330 m 17
 544 294 652 233 658 104 c 0
 658 81 644 52 606 52 c 2
 342 52 l 1
EndSplineSet
EndChar
StartChar: uni0631
Encoding: 1585 1585 3
Width: 1000
VWidth: 0
Flags: W
LayerCount: 2
Back
SplineSet
543.403320312 187.49609375 m 1
 543.403320312 -1.0576171875 l 2
 543.403320312 -83.1875 484.76953125 -147.631835938 403.9453125 -147.631835938 c 2
 302.1953125 -147.631835938 l 1
697.8046875 52.84765625 m 1
 572.575195312 52.84765625 l 1
EndSplineSet
Fore
SplineSet
543 187 m 1
 543 -1 l 2
 543 -83 485 -148 404 -148 c 2
 302 -148 l 1
EndSplineSet
EndChar
StartChar: uni0633
Encoding: 1587 1587 5
Width: 1000
VWidth: 0
Flags: W
LayerCount: 2
Back
SplineSet
782.458984375 482.321289062 m 1
 782.458984375 482.321289062 l 1
590.173828125 482.7578125 m 1
 590.173828125 482.7578125 l 1
685.19921875 576.91015625 m 1
 685.19921875 576.91015625 l 1
867.620117188 375.772460938 m 1
 867.640625 103.701171875 l 2
 867.640625 74.458984375 845.276367188 51.9443359375 814.499023438 51.9443359375 c 2
 732.237304688 51.9443359375 l 1
684.341796875 375.62890625 m 1
 684.341796875 103.565429688 l 2
 684.341796875 74.3232421875 661.978515625 51.80859375 631.224609375 51.80859375 c 2
 548.9609375 51.80859375 l 1
501.24609375 377.69140625 m 1
 501.24609375 -96.8984375 l 2
 501.24609375 -126.155273438 478.881835938 -148.84375 448.120117188 -148.655273438 c 2
 181.083007812 -148.16015625 l 2
 153.732421875 -148.4375 132.359375 -120.717773438 132.359375 -92.083984375 c 2
 132.612304688 186.248046875 l 1
EndSplineSet
Fore
SplineSet
868 376 m 1
 868 104 l 2
 868 75 845 52 814 52 c 2
 732 52 l 1
684 376 m 1
 684 104 l 2
 684 75 662 52 631 52 c 2
 549 52 l 1
501 378 m 1
 501 -97 l 2
 501 -126 479 -149 448 -149 c 2
 181 -149 l 2
 154 -149 132 -122 132 -93 c 2
 132 185 l 1
EndSplineSet
EndChar
StartChar: uni0635
Encoding: 1589 1589 6
Width: 1000
VWidth: 0
Flags: W
LayerCount: 2
Back
SplineSet
513.178710938 69.1083984375 m 0
 617.337890625 212.692382812 717.419921875 362.061523438 833.349609375 319.162109375 c 1
 882.998046875 298.56640625 907.951171875 253.108398438 909.5546875 171.109375 c 1
 912.368164062 103.918945312 l 2
 913.586914062 74.7001953125 890.00390625 52.1630859375 859.227539062 52.1630859375 c 2
 457.365234375 52.1630859375 l 1
457.342773438 276.90234375 m 1
 457.342773438 -86.58203125 l 2
 457.342773438 -115.838867188 434.971679688 -138.526367188 404.216796875 -138.338867188 c 2
 137.171875 -136.735351562 l 2
 108.7109375 -136.735351562 88.4482421875 -110.041992188 88.4482421875 -80.65234375 c 2
 87.5859375 197.6875 l 1
548.530273438 386.97265625 m 1
 548.530273438 386.97265625 548.540039062 386.97265625 548.530273438 386.97265625 c 1
EndSplineSet
Fore
SplineSet
513 69 m 17
 617 213 717 362 833 319 c 0
 883 298 908 253 910 171 c 1
 912 104 l 2
 913 75 890 52 859 52 c 2
 457 52 l 1
457 277 m 1
 457 -87 l 2
 457 -116 435 -138 404 -138 c 2
 137 -137 l 2
 109 -137 88 -110 88 -81 c 2
 88 198 l 1
EndSplineSet
EndChar
StartChar: uni0637
Encoding: 1591 1591 7
Width: 1000
VWidth: 0
Flags: W
LayerCount: 2
Back
SplineSet
360.071289062 69.6875 m 0
 464.223632812 213.263671875 564.313476562 362.633789062 680.234375 319.734375 c 1
 729.891601562 299.137695312 754.836914062 253.6796875 756.440429688 171.680664062 c 1
 759.25390625 104.491210938 l 2
 760.473632812 75.271484375 736.897460938 52.734375 706.12109375 52.734375 c 2
 240.701171875 52.734375 l 1
373.306640625 660.705078125 m 1
 373.306640625 87.8330078125 l 1
EndSplineSet
Fore
SplineSet
360 70 m 17
 464 214 564 363 680 320 c 0
 730 299 754 254 756 172 c 1
 759 104 l 2
 760 75 737 53 706 53 c 2
 241 53 l 1
373 661 m 1
 373 88 l 1
EndSplineSet
EndChar
StartChar: uni0639
Encoding: 1593 1593 8
Width: 1000
VWidth: 0
Flags: W
LayerCount: 2
Back
SplineSet
665.436523438 -220.208007812 m 1
 376.9609375 -220.087890625 l 2
 353.31640625 -220.379882812 334.817382812 -200.16796875 334.66796875 -173.01171875 c 2
 334.529296875 4.0048828125 l 1
 335.72265625 30.39453125 348.650390625 52.412109375 379.270507812 52.47265625 c 2
 665.470703125 52.787109375 l 1
626.236328125 254.87109375 m 0
 609.493164062 262.072265625 593.373046875 267.813476562 578.032226562 272.177734375 c 0
 421.990234375 316.409179688 345.706054688 216.967773438 496.974609375 53.337890625 c 0
EndSplineSet
Fore
SplineSet
428.028320312 422.493164062 m 5
 428.028320312 422.493164062 l 5
665 -220 m 1
 377 -220 l 2
 353 -220 335 -200 335 -173 c 2
 335 4 l 2
 336 30 348 52 379 52 c 2
 665 53 l 1
626 255 m 0
 609 262 593 268 578 272 c 0
 422 316 346 217 497 53 c 0
EndSplineSet
EndChar
StartChar: uni0643
Encoding: 1603 1603 10
Width: 1000
VWidth: 0
Flags: W
LayerCount: 2
Back
SplineSet
688.07421875 659.198242188 m 1
 688.07421875 107.220703125 l 2
 688.07421875 80.3056640625 668.552734375 52.732421875 634.389648438 52.732421875 c 2
 311.92578125 52.732421875 l 1
549.452148438 429.748046875 m 1
 449.665039062 429.748046875 l 2
 429.376953125 429.694335938 434.84765625 421.075195312 438.853515625 412.265625 c 2
 474.736328125 336.1796875 l 2
 478.62890625 326.737304688 484.815429688 318.295898438 467.515625 318.723632812 c 2
 356.866210938 318.723632812 l 1
EndSplineSet
Fore
SplineSet
688 659 m 1
 688 107 l 2
 688 80 668 53 634 53 c 2
 312 53 l 1
549 430 m 1
 450 430 l 2
 430 430 435 421 439 412 c 2
 475 336 l 2
 479 327 485 319 468 319 c 2
 357 319 l 1
EndSplineSet
EndChar
StartChar: uni0644
Encoding: 1604 1604 9
Width: 1000
VWidth: 0
Flags: W
LayerCount: 2
Back
SplineSet
683.662109375 695.625976562 m 1
 683.662109375 -41.7490234375 l 2
 683.662109375 -68.6650390625 664.141601562 -96.23828125 629.978515625 -96.23828125 c 2
 370.5078125 -96.7236328125 l 2
 337.94140625 -96.7236328125 316.479492188 -76.541015625 316.479492188 -44.404296875 c 2
 316.337890625 144.840820312 l 1
EndSplineSet
Fore
SplineSet
684 696 m 1
 684 -42 l 2
 684 -69 664 -96 630 -96 c 2
 371 -96 l 2
 338 -96 316 -75 316 -43 c 2
 316 146 l 1
EndSplineSet
EndChar
StartChar: uni0645
Encoding: 1605 1605 11
Width: 1000
VWidth: 0
Flags: W
LayerCount: 2
Back
SplineSet
290.69921875 52.8154296875 m 1
 385.392578125 52.8154296875 l 1
 426.880859375 60.54296875 442.112304688 80.9521484375 443.01953125 107.125 c 2
 443.01953125 238.025390625 l 2
 442.360351562 341.580078125 570.024414062 371.125976562 636.584960938 300.690429688 c 0
 784.111328125 144.573242188 681.637695312 52.6962890625 555.124023438 52.6962890625 c 2
 489.834960938 52.9072265625 l 1
EndSplineSet
Fore
SplineSet
291 53 m 1
 385 53 l 2
 427 53 442 81 443 107 c 2
 443 238 l 2
 442 342 570 371 637 301 c 0
 785 145 682 53 555 53 c 2
 490 53 l 1
EndSplineSet
EndChar
StartChar: uni0647
Encoding: 1607 1607 12
Width: 1000
VWidth: 0
Flags: W
LayerCount: 2
Back
SplineSet
638.78125 363.875976562 m 1
 638.78125 105.115234375 l 2
 638.78125 77.28515625 615.405273438 52.8740234375 586.977539062 52.8740234375 c 2
 446.658203125 52.8740234375 l 2
 374.659179688 52.8740234375 332.454101562 128.799804688 384.103515625 185.91015625 c 1
 452.823242188 250.702148438 509.328125 286.524414062 554.538085938 394.806640625 c 0
EndSplineSet
Fore
SplineSet
639 364 m 1
 639 105 l 2
 639 77 615 53 587 53 c 2
 447 53 l 2
 375 53 332 129 384 186 c 0
 453 251 510 287 555 395 c 9
EndSplineSet
EndChar
StartChar: uni0648
Encoding: 1608 1608 13
Width: 1000
VWidth: 0
Flags: W
LayerCount: 2
Back
SplineSet
729.676757812 52.431640625 m 1
 441.39453125 52.431640625 l 2
 380.485351562 53.4951171875 334.228515625 103.455078125 337.3125 155.423828125 c 1
 352.953125 335.272460938 600.447265625 387.680664062 601.015625 233.346679688 c 2
 601.015625 -0.734375 l 2
 601.015625 -74.7265625 545.721679688 -147.471679688 462.784179688 -147.471679688 c 2
 270.323242188 -147.471679688 l 1
EndSplineSet
Fore
SplineSet
580 52 m 1
 441 52 l 2
 379.9921875 52 334 103 337 155 c 0
 353 335 600 387 601 233 c 2
 601 -1 l 2
 601 -75 546 -147 463 -147 c 2
 270 -147 l 1
EndSplineSet
EndChar
StartChar: uni0649
Encoding: 1609 1609 14
Width: 1000
VWidth: 0
Flags: W
LayerCount: 2
Back
SplineSet
739.353515625 52.8046875 m 1
 600.854492188 52.9072265625 l 2
 556.342773438 53.083984375 531.909179688 16.6259765625 564.016601562 -24.9404296875 c 1
 674.627929688 -158.556640625 l 1
 693.836914062 -177.765625 682.213867188 -221.112304688 632.034179688 -221.112304688 c 2
 401.974609375 -221.112304688 l 2
 337.9140625 -221.112304688 260.646484375 -187.080078125 260.646484375 -95.6669921875 c 2
 260.646484375 100.263671875 l 1
EndSplineSet
Fore
SplineSet
739 53 m 1
 601 53 l 2
 556 53 531 15 564 -25 c 2
 675 -159 l 2
 692 -180 682 -221 632 -221 c 2
 402 -221 l 2
 338 -221 261 -187 261 -96 c 2
 261 100 l 1
EndSplineSet
EndChar
StartChar: uni064B
Encoding: 1611 1611 54
Width: 0
VWidth: 0
Flags: W
LayerCount: 2
Back
SplineSet
194.4140625 180.337890625 m 1
 -194.4140625 179.065429688 l 1
194.4140625 29.62109375 m 1
 -194.4140625 28.3486328125 l 1
EndSplineSet
Fore
SplineSet
194 179 m 1
 -194 179 l 1
194 29 m 1
 -194 28 l 1
EndSplineSet
EndChar
StartChar: uni064C
Encoding: 1612 1612 64
Width: 0
VWidth: 0
Flags: W
LayerCount: 2
Fore
SplineSet
21 62.5 m 1
 8.943359375 95.6240234375 l 1
 3.962890625 110.040039062 11.775390625 125.122070312 24.248046875 128.86328125 c 1
 67.90234375 140.495117188 101.32421875 86.6806640625 65.1455078125 73.5126953125 c 2
 -27.4140625 39.82421875 l 2
 -44.798828125 33.4970703125 -66.416015625 40.2607421875 -73.5126953125 59.759765625 c 2
 -83.1748046875 86.3056640625 l 1
EndSplineSet
EndChar
StartChar: uni064E
Encoding: 1614 1614 55
Width: 0
VWidth: 0
Flags: W
LayerCount: 2
Fore
SplineSet
-66.416015625 25.4951171875 m 1
 66.416015625 74 l 17
EndSplineSet
EndChar
StartChar: uni064F
Encoding: 1615 1615 56
Width: 0
VWidth: 0
Flags: W
LayerCount: 2
Fore
SplineSet
-8.806640625 53.4638671875 m 1
 -20.86328125 86.587890625 l 1
 -25.84375 101.00390625 -18.03125 116.0859375 -5.55859375 119.827148438 c 1
 38.095703125 131.458984375 71.5185546875 77.64453125 35.3388671875 64.4755859375 c 2
 -76.0146484375 23.947265625 l 2
EndSplineSet
EndChar
StartChar: uni0651
Encoding: 1617 1617 67
Width: 0
VWidth: 0
Flags: W
LayerCount: 2
Fore
SplineSet
-48 18 m 2
 -62 14 -65 24.00390625 -65 32 c 2
 -65 98 l 1
-47.7358462676 17.9760532151 m 1
 -13 30 l 2
 -6 32 0 38 0 45 c 2
 0 111 l 1
28 45 m 1
 54 54 l 2
 61.1953125 56.490234375 67 62 67 69 c 2
 67 135 l 1
EndSplineSet
EndChar
StartChar: uni0652
Encoding: 1618 1618 57
Width: 0
VWidth: 0
Flags: W
LayerCount: 2
Back
SplineSet
-2.8017578125 223.33984375 m 0
 54.373046875 225.770507812 101.907226562 175.473632812 102.06640625 122.159179688 c 0
 102.06640625 68.845703125 56.15625 25.7197265625 0.900390625 25.44140625 c 0
 -54.3623046875 25.44140625 -97.26171875 67.1376953125 -101.76171875 120.676757812 c 0
 -106.26953125 174.202148438 -59.9990234375 220.961914062 -2.8017578125 223.33984375 c 0
EndSplineSet
Fore
SplineSet
-3 223 m 0
 54 225 102 175 102 122 c 0
 102 69 56 25 1 25 c 0
 -54 25 -98 67 -102 121 c 0
 -107 175 -60 221 -3 223 c 0
EndSplineSet
EndChar
StartChar: uni0661
Encoding: 1633 1633 15
Width: 1000
VWidth: 0
Flags: W
LayerCount: 2
Back
SplineSet
500 659.485351562 m 1
 500 0.2412109375 l 1
EndSplineSet
Fore
SplineSet
500 659 m 1
 500 0 l 1
EndSplineSet
EndChar
StartChar: uni0662
Encoding: 1634 1634 16
Width: 1000
VWidth: 0
Flags: W
LayerCount: 2
Back
SplineSet
612.912109375 604.810546875 m 1
 438.859375 603.577148438 l 2
 409.587890625 603.374023438 387.087890625 581.212890625 387.087890625 550.451171875 c 2
 387.087890625 -0.46484375 l 1
EndSplineSet
Fore
SplineSet
613 604 m 1
 439 604 l 2
 410 604 387 581 387 550 c 2
 387 -0 l 1
EndSplineSet
EndChar
StartChar: uni0663
Encoding: 1635 1635 17
Width: 1000
VWidth: 0
Flags: W
LayerCount: 2
Back
SplineSet
683.720703125 659.637695312 m 1
 683.720703125 477.060546875 l 2
 683.720703125 447.818359375 661.372070312 425.311523438 630.594726562 425.303710938 c 2
 548.34765625 425.303710938 l 1
500.489257812 659.501953125 m 1
 500.489257812 476.91796875 l 2
 500.489257812 447.67578125 478.139648438 425.17578125 447.36328125 425.17578125 c 2
 365.040039062 425.162109375 l 1
316.279296875 659.833984375 m 1
 316.279296875 0.212890625 l 1
EndSplineSet
Fore
SplineSet
684 660 m 1
 684 477 l 2
 684 448 662 425 631 425 c 2
 548 425 l 1
500 660 m 1
 500 477 l 2
 500 448 478 425 447 425 c 2
 365 425 l 1
316 660 m 1
 316 0 l 1
EndSplineSet
EndChar
StartChar: uni0664
Encoding: 1636 1636 18
Width: 1000
VWidth: 0
Flags: W
LayerCount: 2
Back
SplineSet
545.6796875 607.766601562 m 1
 389.086914062 492.010742188 l 1
 362.237304688 468.737304688 337.690429688 456.63671875 381.3359375 423.721679688 c 1
 509.259765625 335.650390625 l 1
 375.08984375 142.567382812 l 2
 354.7734375 114.236328125 317.661132812 52.73828125 372.547851562 52.9990234375 c 2
 656.146484375 52.396484375 l 1
EndSplineSet
Fore
SplineSet
546 608 m 1
 389 492 l 2
 360 471 336 455 381 424 c 2
 509 336 l 1
 375 143 l 2
 355 115 318 53 373 53 c 2
 656 52 l 1
EndSplineSet
EndChar
StartChar: uni0665
Encoding: 1637 1637 19
Width: 1000
VWidth: 0
Flags: W
LayerCount: 2
Back
SplineSet
556.603515625 567.333984375 m 0
 682.04296875 490.165039062 790.403320312 41.8525390625 500.768554688 40.046875 c 0
 211.208007812 38.248046875 316.934570312 483.897460938 438.612304688 564.353515625 c 0
 476.538085938 589.44921875 519.053710938 590.419921875 556.603515625 567.333984375 c 0
EndSplineSet
Fore
SplineSet
557 567 m 0
 682 490 791 42 501 40 c 0
 211 38 317 484 439 564 c 0
 477 589 519 590 557 567 c 0
EndSplineSet
EndChar
StartChar: uni0666
Encoding: 1638 1638 20
Width: 1000
VWidth: 0
Flags: W
LayerCount: 2
Back
SplineSet
340.020507812 604.7734375 m 1
 608.283203125 603.546875 l 2
 637.479492188 603.418945312 659.979492188 581.174804688 659.979492188 550.420898438 c 2
 659.979492188 -0.501953125 l 1
EndSplineSet
Fore
SplineSet
340 604 m 1
 608 604 l 2
 637 604 660 581 660 550 c 2
 660 -1 l 1
EndSplineSet
EndChar
StartChar: uni0667
Encoding: 1639 1639 21
Width: 1000
VWidth: 0
Flags: W
LayerCount: 2
Back
SplineSet
694.293945312 637.767578125 m 1
 541.913085938 57.0615234375 l 1
 534.764648438 39.4755859375 502.2578125 38.572265625 492.249023438 56.8349609375 c 1
 305.706054688 637.767578125 l 1
EndSplineSet
Fore
SplineSet
694 638 m 1
 542 57 l 0
 535 39 502 39 492 57 c 0
 306 638 l 1
EndSplineSet
EndChar
StartChar: uni0668
Encoding: 1640 1640 22
Width: 1000
VWidth: 0
Flags: W
LayerCount: 2
Back
SplineSet
305.717773438 6.8583984375 m 1
 458.150390625 587.557617188 l 1
 465.297851562 605.151367188 497.806640625 606.046875 507.814453125 587.783203125 c 1
 694.282226562 6.8583984375 l 1
EndSplineSet
Fore
SplineSet
306 7 m 1
 458 588 l 0
 465 606 498 606 508 588 c 0
 694 7 l 1
EndSplineSet
EndChar
StartChar: uni0669
Encoding: 1641 1641 23
Width: 1000
VWidth: 0
Flags: W
LayerCount: 2
Back
SplineSet
639.801757812 0.2734375 m 1
 640.02734375 483.705078125 l 1
 620.583007812 616.391601562 488.96484375 627.227539062 425.46875 583.651367188 c 1
 371.162109375 554.57421875 334.41796875 469.663085938 381.794921875 392.984375 c 1
 435.997070312 314.973632812 501.1328125 341.76953125 600.047851562 334.7109375 c 0
EndSplineSet
Fore
SplineSet
640 0 m 1
 640 475 l 2
 640 609 488 628 425 584 c 0
 371 555 335 470 382 393 c 0
 436 315 501 342 600 335 c 9
EndSplineSet
EndChar
StartChar: uni066E
Encoding: 1646 1646 4
Width: 1000
VWidth: 0
Flags: W
LayerCount: 2
Back
SplineSet
-34.5185546875 621.15625 m 0,0,1
780.833007812 300.048828125 m 1,25,-1
 780.833007812 105.099609375 l 2,26,27
 780.833007812 79.1865234375 753.752929688 52.9375 728.670898438 52.9375 c 2,28,-1
 337.190429688 52.9375 l 2,29,30
 273.879882812 52.9375 219.166992188 99.615234375 219.166992188 159.896484375 c 2,31,-1
 219.166992188 300.048828125 l 1
EndSplineSet
Fore
SplineSet
-35 621 m 0,0,1
781 300 m 1,25,-1
 781 105 l 2,26,27
 781 79 754 53 729 53 c 2,28,-1
 337 53 l 2,29,30
 274 53 219 100 219 160 c 2,31,-1
 219 300 l 1
EndSplineSet
EndChar
StartChar: uni066F
Encoding: 1647 1647 60
Width: 1000
VWidth: 0
Flags: W
LayerCount: 2
Back
SplineSet
66 99 m 1
 66 -53 l 2
 66 -111 108 -147 165 -147 c 2
 657 -147 l 2
 691 -147 712 -120 712 -93 c 2
 712 191 l 2
 712 319 570 344 498 298 c 0
 449 266 414 183 454 117 c 0
 501 39 571 53 672 53 c 2
EndSplineSet
Fore
SplineSet
136 189 m 1
 136 -53 l 2
 136 -111 178 -147 235 -147 c 2
 657 -147 l 2
 691 -147 712 -120 712 -93 c 2
 712 191 l 2
 712 319 570 344 498 298 c 0
 449 266 414 183 454 117 c 0
 501 39 571 53 672 53 c 2
EndSplineSet
EndChar
StartChar: uni0670
Encoding: 1648 1648 68
Width: 0
VWidth: -36
Flags: W
LayerCount: 2
Fore
SplineSet
0 184 m 5
 0 57 l 6
 0 53 5 1 -53 1 c 6
EndSplineSet
EndChar
StartChar: uni06A1
Encoding: 1697 1697 25
Width: 1000
VWidth: 0
Flags: W
LayerCount: 2
Back
SplineSet
66.0068359375 98.5361328125 m 1
 66.0068359375 -52.6123046875 l 2
 66.0068359375 -110.30859375 108.076171875 -147.155273438 165.232421875 -147.155273438 c 2
 656.993164062 -147.079101562 l 2
 690.500976562 -146.733398438 711.819335938 -120.192382812 711.68359375 -93.080078125 c 2
 711.90234375 191.303710938 l 2
 711.90234375 318.920898438 569.202148438 344.174804688 497.524414062 297.708984375 c 0
 448.087890625 265.663085938 413.65234375 182.939453125 453.68359375 117.01953125 c 0
 501.022460938 39.0703125 570.610351562 53.3173828125 671.922851562 52.9638671875 c 2
 933.993164062 52.0478515625 l 1
EndSplineSet
Fore
SplineSet
66 99 m 1
 66 -53 l 2
 66 -111 108 -147 165 -147 c 2
 657 -147 l 2
 691 -147 712 -120 712 -93 c 2
 712 191 l 2
 712 319 570 344 498 298 c 0
 449 266 414 183 454 117 c 0
 501 39 571 53 672 53 c 2
EndSplineSet
EndChar
StartChar: uni06BA
Encoding: 1722 1722 24
Width: 1000
VWidth: 0
Flags: W
LayerCount: 2
Back
SplineSet
681.9375 187.759765625 m 1
 681.9375 -83.4443359375 l 2
 682.262695312 -109.30078125 659.373046875 -135.450195312 630.64453125 -135.450195312 c 2
 492.05078125 -135.450195312 l 2
 411.485351562 -135.450195312 318.059570312 -72.88671875 318.059570312 -3.064453125 c 2
 318.059570312 187.169921875 l 1
EndSplineSet
Fore
SplineSet
682 188 m 1
 682 -83 l 2
 682 -109 660 -135 631 -135 c 2
 492 -135 l 2
 411 -135 318 -73 318 -3 c 2
 318 187 l 1
EndSplineSet
EndChar
StartChar: uni06D2
Encoding: 1746 1746 26
Width: 1000
VWidth: 0
Flags: W
LayerCount: 2
Back
SplineSet
896.846679688 -144.895507812 m 1
 271.095703125 -144.77734375 l 1
 55.3857421875 -137.637695312 67.7802734375 50.75 193.936523438 83.421875 c 0
 304.288085938 112.0078125 292.09765625 158.403320312 316.1328125 192.68359375 c 0
 388.958984375 296.565429688 500.569335938 253.665039062 554.267578125 220.004882812 c 0
EndSplineSet
Fore
SplineSet
897 -145 m 1
 271 -145 l 2
 55 -145 68 50 194 83 c 0
 304 112 292 159 316 193 c 0
 389 297 500 254 554 220 c 9
EndSplineSet
EndChar
StartChar: u0644_u0627.isol.alt1
Encoding: 65539 -1 31
Width: 1000
VWidth: 0
Flags: W
LayerCount: 2
Back
SplineSet
620.204101562 658.766601562 m 1
 620.204101562 109.366210938 l 2
 620.204101562 77.0888671875 598.091796875 52.7607421875 569.68359375 52.7607421875 c 2
 379.795898438 52.7607421875 l 1
438.030273438 658.47265625 m 1
 438.030273438 157.299804688 l 1
EndSplineSet
Fore
SplineSet
620 659 m 1
 620 109 l 2
 620 77 598 53 570 53 c 2
 380 53 l 1
438 658 m 1
 438 157 l 1
EndSplineSet
EndChar
StartChar: u0644_u0627.isol.alt2
Encoding: 65540 -1 32
Width: 1000
VWidth: 0
Flags: W
LayerCount: 2
Back
SplineSet
665.368164062 659.77734375 m 1
 665.368164062 106.592773438 l 2
 665.368164062 74.3154296875 643.255859375 52.7607421875 614.84765625 52.7607421875 c 2
 334.631835938 52.7607421875 l 1
483.194335938 564.359375 m 1
 483.194335938 59.4873046875 l 1
EndSplineSet
Fore
SplineSet
665 660 m 1
 665 107 l 2
 665 75 643 53 615 53 c 2
 335 53 l 1
483 564 m 1
 483 59 l 1
EndSplineSet
EndChar
StartChar: u0644_u0627.isol
Encoding: 65538 -1 30
Width: 1000
VWidth: 0
Flags: W
LayerCount: 2
Back
SplineSet
437.97265625 680.475585938 m 1
 568.926757812 230.705078125 l 1
642.90234375 659.807617188 m 1
 642.90234375 106.623046875 l 2
 642.90234375 74.345703125 620.7890625 52.791015625 592.381835938 52.791015625 c 2
 357.09765625 52.791015625 l 1
606.512695312 263.143554688 m 1
 505.91015625 262.408203125 l 1
 504.733398438 262.408203125 l 1
 504.806640625 261.23046875 l 1
 506.1875 210.372070312 492.783203125 175.916992188 471.02734375 150.028320312 c 0
 449.26953125 124.138671875 419.049804688 106.78515625 386.541992188 90.564453125 c 1
 387.056640625 88.3564453125 l 1
 466.979492188 89.9755859375 l 1
 467.2734375 90.048828125 l 1
 467.567382812 90.1220703125 l 1
 558.198242188 140.771484375 597.041992188 198.916015625 607.690429688 261.744140625 c 2
 607.911132812 263.142578125 l 1
 606.512695312 263.142578125 l 1
 606.512695312 263.143554688 l 1
EndSplineSet
Fore
SplineSet
438 680 m 1
 569 231 l 1
643 660 m 1
 643 107 l 2
 643 75 620 53 592 53 c 2
 357 53 l 1
505 263 m 1
 507 161 453 123 385 90 c 1
 468 90 l 1
 559 141 597 200 608 263 c 9
 505 263 l 1
EndSplineSet
EndChar
StartChar: uni062D.init
Encoding: 65554 -1 46
Width: 1000
VWidth: 0
Flags: W
LayerCount: 2
Back
SplineSet
671.798828125 417.82421875 m 1
 671.798828125 417.82421875 l 1
574.908203125 -139.877929688 m 1
 574.908203125 -139.877929688 l 1
245.327148438 52.5791015625 m 1
 727.629882812 52.5791015625 l 2
 734.00390625 52.40625 750.166992188 63.076171875 751.454101562 69.216796875 c 0
 752.997070312 77.6669921875 755.27734375 77.404296875 754.524414062 91.4306640625 c 1
 713.0625 91.595703125 676.595703125 119.318359375 644.021484375 148.4921875 c 0
 601.520507812 186.545898438 554.887695312 239.987304688 502.778320312 276.686523438 c 0
 447.620117188 315.522460938 393.034179688 328.6015625 351.69921875 339.000976562 c 0
EndSplineSet
Fore
SplineSet
245 53 m 1
 728 53 l 2
 745.255579145 53 756.360268074 71.9562469608 755 91 c 1
 714 91 677 119 644 148 c 0
 601 186 555 240 503 277 c 0
 448 316 393 329 352 339 c 0
EndSplineSet
EndChar
StartChar: uni0633.init
Encoding: 65544 -1 36
Width: 1000
VWidth: 0
Flags: W
LayerCount: 2
Back
SplineSet
798.67578125 376.676757812 m 1
 798.69921875 104.60546875 l 2
 798.69921875 75.36328125 776.3359375 52.8642578125 745.55859375 52.8486328125 c 2
 663.294921875 52.8486328125 l 1
615.3984375 376.534179688 m 1
 615.3984375 104.469726562 l 2
 615.3984375 75.228515625 593.034179688 52.720703125 562.279296875 52.720703125 c 2
 480.002929688 52.720703125 l 1
432.950195312 376.752929688 m 1
 432.973632812 104.680664062 l 2
 432.973632812 75.439453125 410.609375 52.939453125 379.833007812 52.9248046875 c 2
 201.30078125 52.9248046875 l 1
EndSplineSet
Fore
SplineSet
713.458984375 482.321289062 m 1
 713.458984375 482.321289062 l 1
521.173828125 482.7578125 m 1
 521.173828125 482.7578125 l 1
616.19921875 576.91015625 m 1
 616.19921875 576.91015625 l 1
799 377 m 1
 799 105 l 2
 799 76 777 53 746 53 c 2
 663 53 l 1
615 377 m 1
 615 104 l 2
 615 75 593 53 562 53 c 2
 480 53 l 1
433 377 m 1
 433 105 l 2
 433 76 411 53 380 53 c 2
 201 53 l 1
EndSplineSet
EndChar
StartChar: uni0635.init
Encoding: 65556 -1 48
Width: 1000
VWidth: 0
Flags: W
LayerCount: 2
Back
SplineSet
434.485351562 389.147460938 m 5
 434.485351562 389.147460938 l 5
398.112304688 69.18359375 m 0
 502.264648438 212.759765625 602.353515625 362.129882812 718.275390625 319.229492188 c 1
 767.932617188 298.633789062 792.877929688 253.17578125 794.48046875 171.176757812 c 1
 797.294921875 103.987304688 l 2
 798.513671875 74.767578125 774.938476562 52.23046875 744.162109375 52.23046875 c 2
 202.66015625 52.23046875 l 1
341.533203125 277.060546875 m 1
 341.231445312 97.666015625 l 1
EndSplineSet
Fore
SplineSet
398 69 m 4
 502 213 602 362 718 319 c 4
 768 298 792 253 794 171 c 6
 797 104 l 6
 798 75 775 52 744 52 c 6
 203 52 l 5
341 277 m 1
 341 98 l 1
EndSplineSet
EndChar
StartChar: uni0639.init
Encoding: 65549 -1 41
Width: 1000
VWidth: 0
Flags: W
LayerCount: 2
Back
SplineSet
266.13671875 52.6884765625 m 1
 733.86328125 52.6884765625 l 1
684.389648438 307.239257812 m 0
 401.158203125 392.618164062 309.28125 255.54296875 507.385742188 63.7333984375 c 0
EndSplineSet
Fore
SplineSet
266 53 m 1
 734 53 l 1
684 307 m 0
 401 392 309 256 507 64 c 0
EndSplineSet
EndChar
StartChar: uni0643.init
Encoding: 65555 -1 47
Width: 1000
VWidth: 0
Flags: W
LayerCount: 2
Back
SplineSet
220.776367188 52.7294921875 m 1
 682.98046875 52.955078125 l 2
 743.533203125 53.068359375 736.663085938 119.475585938 717.783203125 135.481445312 c 1
 438.103515625 420.653320312 l 1
 403.49609375 451.453125 409.0625 496.930664062 435.357421875 511.44140625 c 1
 534.03125 572.36328125 741.8046875 619.051757812 779.223632812 619.650390625 c 0
EndSplineSet
Fore
SplineSet
221 53 m 1
 683 53 l 2
 744 53 735.376953125 117.250976562 718 135 c 2
 438 421 l 2
 405.291992188 454.409179688 409 496 435 511 c 0
 534 572 742 619 779 620 c 0
EndSplineSet
EndChar
StartChar: uni0643_uni0627.isol
Encoding: 65557 -1 49
Width: 1000
VWidth: 0
Flags: W
LayerCount: 2
Back
SplineSet
714.047851562 621.15625 m 0
 618.560546875 588.452148438 437.850585938 518.624023438 353.793945312 431.55078125 c 1
 670.483398438 105.393554688 l 2
 692.306640625 83.5703125 674.186523438 52.3388671875 640.376953125 52.3388671875 c 2
 334.659179688 52.3388671875 l 2
 305.543945312 52.53515625 285.728515625 78.1640625 285.953125 106.263671875 c 2
 287.693359375 670.732421875 l 1
EndSplineSet
Fore
SplineSet
714 621 m 0
 619 588 438 519 354 432 c 1
 670 105 l 2
 692 83 674 52 640 52 c 2
 335 52 l 2
 306 52 286 78 286 106 c 2
 286 671 l 1
EndSplineSet
EndChar
StartChar: uni0644.int
Encoding: 65543 -1 35
Width: 1000
VWidth: 0
Flags: W
LayerCount: 2
Back
SplineSet
570.32421875 659.30859375 m 1
 570.32421875 107.331054688 l 2
 570.32421875 80.4150390625 550.802734375 52.8427734375 516.639648438 52.8427734375 c 2
 429.67578125 52.8427734375 l 1
EndSplineSet
Fore
SplineSet
570 659 m 1
 570 107 l 2
 570 80 551 53 517 53 c 2
 430 53 l 1
EndSplineSet
EndChar
StartChar: uni0647.init.alt1
Encoding: 65550 -1 42
Width: 1000
VWidth: 0
Flags: W
LayerCount: 2
Back
SplineSet
441.051757812 387.03125 m 0
 699.623046875 383.044921875 811.83984375 257.286132812 808.040039062 105.389648438 c 0
 808.040039062 75.1494140625 785.385742188 52.7578125 756.333007812 52.7578125 c 2
 191.866210938 52.7578125 l 1
363.622070312 103.087890625 m 1
 363.622070312 199.745117188 l 1
 374.745117188 307.911132812 504.532226562 329.243164062 582.098632812 209.809570312 c 0
 644.580078125 113.6015625 580.021484375 53.6533203125 514.366210938 53.12109375 c 0
EndSplineSet
Fore
SplineSet
441 387 m 0
 700 383 812 257 808 105 c 0
 808 75 785 53 756 53 c 2
 192 53 l 1
364 103 m 1
 364 200 l 1
 375 308 504 329 582 210 c 0
 644 114 580 54 514 53 c 0
EndSplineSet
EndChar
StartChar: uni0647.init.alt2
Encoding: 65551 -1 43
Width: 1000
VWidth: 0
Flags: W
LayerCount: 2
Back
SplineSet
457.63671875 397.036132812 m 0
 704.846679688 397.036132812 802.696289062 275.333984375 800.9453125 104.697265625 c 0
 800.9453125 74.4560546875 778.291015625 53.04296875 749.23828125 53.04296875 c 2
 199.03125 53.04296875 l 1
350.176757812 185.716796875 m 0
 350.176757812 118.063476562 405.120117188 63.1201171875 472.7734375 63.1201171875 c 0
 540.42578125 63.1201171875 595.369140625 118.063476562 595.369140625 185.716796875 c 0
 595.369140625 253.369140625 540.42578125 308.3125 472.7734375 308.3125 c 0
 405.120117188 308.3125 350.176757812 253.369140625 350.176757812 185.716796875 c 0
EndSplineSet
Fore
SplineSet
458 397 m 0
 705 397 803 276 801 105 c 0
 801 75 778 53 749 53 c 2
 199 53 l 1
350 186 m 0
 350 118 405 63 473 63 c 0
 541 63 595 118 595 186 c 0
 595 254 541 308 473 308 c 0
 405 308 350 254 350 186 c 0
EndSplineSet
EndChar
StartChar: uni0647.init.alt3
Encoding: 65553 -1 45
Width: 1000
VWidth: 0
Flags: W
LayerCount: 2
Back
SplineSet
441.163085938 481.560546875 m 0
 645.9140625 452.495117188 812.732421875 291.227539062 812.732421875 104.837890625 c 0
 812.732421875 74.59765625 790.077148438 53.18359375 761.025390625 53.18359375 c 2
 187.267578125 53.18359375 l 1
338.413085938 185.857421875 m 0
 338.413085938 118.205078125 393.356445312 63.26171875 461.008789062 63.26171875 c 0
 528.662109375 63.26171875 583.60546875 118.205078125 583.60546875 185.857421875 c 0
 583.60546875 253.509765625 528.662109375 308.453125 461.008789062 308.453125 c 0
 393.356445312 308.453125 338.413085938 253.509765625 338.413085938 185.857421875 c 0
EndSplineSet
Fore
SplineSet
441 482 m 0
 646 453 813 291 813 105 c 0
 813 75 790 53 761 53 c 2
 187 53 l 1
338 186 m 0
 338 118 393 63 461 63 c 0
 529 63 584 118 584 186 c 0
 584 254 529 308 461 308 c 0
 393 308 338 254 338 186 c 0
EndSplineSet
EndChar
StartChar: uni0647.init
Encoding: 65552 -1 44
Width: 1000
VWidth: 0
Flags: W
LayerCount: 2
Back
SplineSet
441.051757812 448.146484375 m 0
 699.623046875 444.16015625 811.83984375 257.171875 808.040039062 105.274414062 c 0
 808.040039062 75.0341796875 785.385742188 52.6435546875 756.333007812 52.6435546875 c 2
 191.866210938 52.6435546875 l 1
363.622070312 102.973632812 m 1
 363.622070312 199.629882812 l 1
 374.745117188 307.795898438 504.532226562 329.127929688 582.098632812 209.694335938 c 0
 644.580078125 113.487304688 580.021484375 53.5380859375 514.3671875 53.005859375 c 0
EndSplineSet
Fore
SplineSet
441 448 m 0
 700 444 812 257 808 105 c 0
 808 75 785 53 756 53 c 2
 192 53 l 1
364 103 m 1
 364 200 l 2
 364 308.55859375 504 329 582 210 c 0
 644 114 580 54 514 53 c 0
EndSplineSet
EndChar
StartChar: uni0647.medi
Encoding: 65537 -1 29
Width: 1000
VWidth: 0
Flags: W
LayerCount: 2
Back
SplineSet
601.958007812 -239.197265625 m 1
 601.958007812 0.6083984375 l 2
 601.958007812 28.439453125 625.333984375 52.849609375 653.76171875 52.849609375 c 2
 794.081054688 52.849609375 l 1
509.266601562 -262.181640625 m 0
 488.82421875 -157.809570312 449.581054688 -150.041992188 413.087890625 -91.607421875 c 0
 378.889648438 -36.8505859375 396.228515625 51.2470703125 346.23828125 52.849609375 c 1
 205.918945312 52.849609375 l 1
EndSplineSet
Fore
SplineSet
602 -239 m 1
 602 1 l 2
 602 29 626 53 654 53 c 2
 794 53 l 1
509 -262 m 0
 489 -158 449 -150 413 -92 c 0
 379 -37 396 51 346 53 c 1
 206 53 l 1
EndSplineSet
EndChar
StartChar: uni0649.fina.alt1
Encoding: 65547 -1 39
Width: 1000
VWidth: 0
Flags: W
LayerCount: 2
Back
SplineSet
759.208007812 53.0771484375 m 1
 505.82421875 53.0771484375 l 1
602.90625 57.931640625 m 1
 602.90625 -84.7783203125 l 2
 602.90625 -105.793945312 587.123046875 -135.1171875 556.306640625 -135.1171875 c 2
 419.421875 -135.1171875 l 2
 337.391601562 -135.1171875 240.791992188 -79.5771484375 240.791992188 3.5654296875 c 2
 240.791992188 186.079101562 l 1
EndSplineSet
Fore
SplineSet
759 53 m 1
 506 53 l 1
603 58 m 1
 603 -85 l 2
 603 -106 587 -135 556 -135 c 2
 419 -135 l 2
 337 -135 241 -79 241 4 c 2
 241 186 l 1
EndSplineSet
EndChar
StartChar: uni0649.fina.alt2
Encoding: 65548 -1 40
Width: 1000
VWidth: 0
Flags: W
LayerCount: 2
Back
SplineSet
856.30859375 52.8037109375 m 1
 744.620117188 52.8271484375 l 2
 719.015625 52.8271484375 697.796875 72.662109375 697.796875 98.220703125 c 1
 693.829101562 180.728515625 l 2
 690.821289062 243.31640625 630.64453125 277.256835938 563.108398438 239.418945312 c 0
 523.4765625 217.213867188 484.655273438 190.9609375 449.19140625 157.325195312 c 1
 430.669921875 141.27734375 428.8984375 104.421875 449.608398438 85.5302734375 c 1
 564.463867188 -44.2265625 l 1
 591.19140625 -70.955078125 560.764648438 -110.4765625 524.743164062 -110.288085938 c 2
 259.10546875 -110.288085938 l 1
 190.3515625 -111.49609375 143.69140625 -54.177734375 143.69140625 13.755859375 c 2
 143.69140625 217.1171875 l 1
EndSplineSet
Fore
SplineSet
856 53 m 1
 745 53 l 2
 719 53 698 72 698 98 c 2
 694 181 l 2
 691 244 631 277 563 239 c 0
 523 217 484 191 449 157 c 0
 430 141 429 105 450 86 c 0
 564 -44 l 1
 591 -71 561 -110 525 -110 c 2
 259 -110 l 2
 190 -111 144 -54 144 14 c 2
 144 217 l 1
EndSplineSet
EndChar
StartChar: uni064F.alt
Encoding: 65559 -1 58
Width: 0
VWidth: 0
Flags: W
LayerCount: 2
Back
SplineSet
107.534179688 232.669921875 m 0
 164.716796875 235.092773438 212.244140625 184.803710938 212.401367188 131.489257812 c 0
 212.401367188 78.1826171875 166.484375 35.0498046875 111.237304688 34.771484375 c 0
 55.982421875 34.771484375 13.0732421875 76.4677734375 8.5751953125 130.006835938 c 0
 4.0673828125 183.532226562 50.337890625 230.291992188 107.534179688 232.669921875 c 0
-212.401367188 32.228515625 m 1
 103.140625 35.3212890625 l 1
EndSplineSet
Fore
SplineSet
108 233 m 0
 165 235 212 184 212 131 c 0
 212 78 166 35 111 35 c 0
 56 35 13 76 9 130 c 0
 4 184 51 231 108 233 c 0
-212 32 m 1
 103 35 l 1
EndSplineSet
EndChar
StartChar: uni0664.alt
Encoding: 65536 -1 28
Width: 1000
VWidth: 0
Flags: W
LayerCount: 2
Back
SplineSet
543.967773438 615.428710938 m 1
 369.215820312 487.391601562 l 2
 330.349609375 459.489257812 342.125976562 435.943359375 370.856445312 404.978515625 c 1
 503.53515625 283.924804688 l 1
 359.959960938 123.82421875 l 2
 335.361328125 97.3515625 323.953125 70.7138671875 351.411132812 53.0908203125 c 1
 664.53125 52.8720703125 l 1
EndSplineSet
Fore
SplineSet
544 615 m 1
 369 487 l 2
 330 459 342 436 371 405 c 1
 504 284 l 1
 360 124 l 2
 335 98 324 71 351 53 c 1
 665 53 l 1
EndSplineSet
EndChar
StartChar: uni066E.init
Encoding: 65545 -1 37
Width: 1000
VWidth: 0
Flags: W
LayerCount: 2
Back
SplineSet
670.66796875 376.509765625 m 1
 670.692382812 104.438476562 l 2
 670.692382812 75.1962890625 648.328125 52.6962890625 617.55078125 52.681640625 c 2
 329.307617188 52.681640625 l 1
EndSplineSet
Fore
SplineSet
671 377 m 1
 671 104 l 2
 671 75 649 53 618 53 c 2
 329 53 l 1
EndSplineSet
EndChar
StartChar: uni066F.fina
Encoding: 65561 -1 61
Width: 1000
VWidth: 0
Flags: W
LayerCount: 2
Back
SplineSet
136 189 m 1
 136 -53 l 2
 136 -111 178 -147 235 -147 c 2
 657 -147 l 2
 691 -147 712 -120 712 -93 c 2
 712 191 l 2
 712 319 570 344 498 298 c 0
 449 266 414 183 454 117 c 0
 501 39 571 53 672 53 c 2
 934 53 l 1
EndSplineSet
Fore
SplineSet
136 189 m 1
 136 -53 l 2
 136 -111 178 -147 235 -147 c 2
 657 -147 l 2
 691 -147 712 -120 712 -93 c 2
 712 191 l 2
 712 319 570 344 498 298 c 0
 449 266 414 183 454 117 c 0
 501 39 571 53 672 53 c 2
 934 53 l 1
EndSplineSet
EndChar
StartChar: uni066F.init
Encoding: 65562 -1 62
Width: 1000
VWidth: 0
Flags: W
LayerCount: 2
Back
SplineSet
672 53 m 6
 934 53 l 5
EndSplineSet
Fore
SplineSet
305 53 m 13
 657 53 l 2
 691 53 712 80 712 107 c 2
 712 331 l 2
 712 459 570 484 498 438 c 0
 449 406 414 323 454 257 c 0
 501 179 571 193 672 193 c 2
EndSplineSet
EndChar
StartChar: uni06A1.fina
Encoding: 65560 -1 59
Width: 1000
VWidth: 0
Flags: W
LayerCount: 2
Back
SplineSet
66 99 m 1
 66 -53 l 2
 66 -111 108 -147 165 -147 c 2
 657 -147 l 2
 691 -147 712 -120 712 -93 c 2
 712 191 l 2
 712 319 570 344 498 298 c 0
 449 266 414 183 454 117 c 0
 501 39 571 53 672 53 c 2
 934 53 l 1
EndSplineSet
Fore
SplineSet
66 99 m 1
 66 -53 l 2
 66 -111 108 -147 165 -147 c 2
 657 -147 l 2
 691 -147 712 -120 712 -93 c 2
 712 191 l 2
 712 319 570 344 498 298 c 0
 449 266 414 183 454 117 c 0
 501 39 571 53 672 53 c 2
 934 53 l 1
EndSplineSet
EndChar
StartChar: uni06BA.fina
Encoding: 65546 -1 38
Width: 1000
VWidth: 0
Flags: W
LayerCount: 2
Back
SplineSet
758.870117188 52.72265625 m 1
 637.844726562 52.72265625 l 1
605.006835938 187.759765625 m 1
 605.006835938 -83.4443359375 l 2
 605.333007812 -109.30078125 582.442382812 -135.450195312 553.713867188 -135.450195312 c 2
 415.120117188 -135.450195312 l 2
 334.555664062 -135.450195312 241.129882812 -72.88671875 241.129882812 -3.064453125 c 2
 241.129882812 187.169921875 l 1
EndSplineSet
Fore
SplineSet
759 53 m 1
 638 53 l 1
605 188 m 1
 605 -83 l 2
 605 -109 583 -135 554 -135 c 2
 415 -135 l 2
 334 -135 241 -73 241 -3 c 2
 241 187 l 1
EndSplineSet
EndChar
StartChar: uni06D2.fina
Encoding: 65558 -1 50
Width: 1000
VWidth: 0
Flags: W
LayerCount: 2
Back
SplineSet
802.649414062 -222.78125 m 1
 365.291992188 -222.666992188 l 1
 149.583007812 -215.524414062 161.9765625 -27.1357421875 288.131835938 5.5361328125 c 0
 398.493164062 34.109375 388.989257812 78.783203125 410.336914062 114.796875 c 0
 463.61328125 204.672851562 572.702148438 198.776367188 613.298828125 121.260742188 c 0
 639.313476562 71.57421875 674.263671875 53.2080078125 728.6171875 53.212890625 c 2
 802.631835938 53.21875 l 1
EndSplineSet
Fore
SplineSet
803 -223 m 1
 365 -223 l 2
 148.88671875 -223 162 -27 288 6 c 0
 398 35 389 79 410 115 c 0
 463 205 572 199 613 121 c 0
 639 71 675 53 729 53 c 2
 803 53 l 1
EndSplineSet
EndChar
